<svg xmlns="http://www.w3.org/2000/svg" viewBox="0 0 168.64 277.37"><defs><style>.cls-1{fill:#fff;}</style></defs><g id="Capa_2" data-name="Capa 2"><g id="Capa_1-2" data-name="Capa 1"><path class="cls-1" d="M62.32,264c0-9.29,8.73-18.2,19.51-18.2,9.1,0,14.3,5.94,14.3,13,0,9.47-8.36,18.58-19.69,18.58C67.52,277.37,62.32,271.42,62.32,264Z"/><path class="cls-1" d="M84.32,235.4l84.32-90.92c-35.16,6.45-56,10.24-62.14,10.78a2.09,2.09,0,0,1-1.82-.94l0,0a3.21,3.21,0,0,1-.7-3.14L147.88,0,0,201.59l80.17-5.69c4-.25,4.15.08,4.15,3.87Z"/></g></g></svg>