<svg xmlns="http://www.w3.org/2000/svg" viewBox="0 0 798.72 277.58"><defs><style>.cls-1{fill:#fff;}</style></defs><g id="Capa_2" data-name="Capa 2"><g id="Capa_1-2" data-name="Capa 1"><path class="cls-1" d="M692.4,264c0-9.29,8.74-18.2,19.51-18.2,9.1,0,14.3,5.94,14.3,13,0,9.47-8.36,18.58-19.69,18.58C697.61,277.37,692.4,271.42,692.4,264Z"/><path class="cls-1" d="M361.82,0C342,19,329,38.33,317.59,65.29L228.3,277.58H190.39l-26.54-174.8L76.24,277.58H40.44L19,65.29C16.85,41.28,12.21,19,0,0H109.94c-8.43,10.11-12.22,34.54-12.22,54.34,0,3.37.42,5.89.42,8.84L104,186.6,158.38,67.82,158,65.29c-5-34.54-9.68-51-19.79-65.29H248.09c-8.84,9.69-12.21,29.49-12.21,48.44,0,5.05.42,10.11.84,14.74l11.37,120.89L294.85,63.18c5.47-13.9,11.37-35,11.37-51A35.8,35.8,0,0,0,304.54,0Z"/><path class="cls-1" d="M369.68,277.58c8.85-9.27,12.22-32.43,12.22-51.81a99.16,99.16,0,0,0-.42-11.37l-2.11-25.28h-55.6L312.4,214.4c-5.9,12.63-10.53,32.85-10.53,48,0,6.31.84,11.79,2.53,15.16H246.27c16.43-16,30.33-39.6,43.38-65.29L395,0h30.32l33.28,212.29c3.37,21.9,8,47.18,19.38,65.29Zm8.43-104.88-7.58-88.46-39.6,88.46Z"/><path class="cls-1" d="M691.17,0,677.69,91.82C667.58,38.75,652.42,20.64,628,20.64h-8.85L588.82,200.08a235,235,0,0,0-3,35.38c0,13.06,1.26,29.06,4.63,41.69h-96c13.9-24.43,22.33-54.33,26.12-77.07L550.91,20.64H540.8c-28.64,0-45.91,22.32-73.71,71.18L485.62,0Z"/><path class="cls-1" d="M714.4,235.4l84.32-90.92c-35.16,6.45-56,10.24-62.14,10.78a2.07,2.07,0,0,1-1.81-.94l0,0a3.21,3.21,0,0,1-.7-3.14L778,0,630.08,201.59l80.17-5.69c4-.25,4.15.08,4.15,3.87Z"/></g></g></svg>